<?xml version="1.0" encoding="UTF-8" standalone="no"?>
<!DOCTYPE svg PUBLIC "-//W3C//DTD SVG 1.1//EN"
 "http://www.w3.org/Graphics/SVG/1.1/DTD/svg11.dtd">
<!-- Generated by graphviz version 14.0.1 (20251006.0113)
 -->
<!-- Title: ParseTree Pages: 1 -->
<svg width="1049pt" height="860pt"
 viewBox="0.00 0.00 1049.00 860.00" xmlns="http://www.w3.org/2000/svg" xmlns:xlink="http://www.w3.org/1999/xlink">
<g id="graph0" class="graph" transform="scale(1 1) rotate(0) translate(4 856.25)">
<title>ParseTree</title>
<polygon fill="white" stroke="none" points="-4,4 -4,-856.25 1045.12,-856.25 1045.12,4 -4,4"/>
<!-- n2201300172624 -->
<g id="node1" class="node">
<title>n2201300172624</title>
<path fill="#f6f6f6" stroke="black" d="M627.75,-852.25C627.75,-852.25 593.75,-852.25 593.75,-852.25 587.75,-852.25 581.75,-846.25 581.75,-840.25 581.75,-840.25 581.75,-828.25 581.75,-828.25 581.75,-822.25 587.75,-816.25 593.75,-816.25 593.75,-816.25 627.75,-816.25 627.75,-816.25 633.75,-816.25 639.75,-822.25 639.75,-828.25 639.75,-828.25 639.75,-840.25 639.75,-840.25 639.75,-846.25 633.75,-852.25 627.75,-852.25"/>
<text xml:space="preserve" text-anchor="middle" x="610.75" y="-830" font-family="Consolas" font-size="10.00">programa</text>
</g>
<!-- n2201337316304 -->
<g id="node2" class="node">
<title>n2201337316304</title>
<path fill="#f6f6f6" stroke="black" d="M325.38,-794.25C325.38,-794.25 286.12,-794.25 286.12,-794.25 280.12,-794.25 274.12,-788.25 274.12,-782.25 274.12,-782.25 274.12,-770.25 274.12,-770.25 274.12,-764.25 280.12,-758.25 286.12,-758.25 286.12,-758.25 325.38,-758.25 325.38,-758.25 331.38,-758.25 337.38,-764.25 337.38,-770.25 337.38,-770.25 337.38,-782.25 337.38,-782.25 337.38,-788.25 331.38,-794.25 325.38,-794.25"/>
<text xml:space="preserve" text-anchor="middle" x="305.75" y="-772" font-family="Consolas" font-size="10.00">instrucao</text>
</g>
<!-- n2201300172624&#45;&gt;n2201337316304 -->
<g id="edge1" class="edge">
<title>n2201300172624&#45;&gt;n2201337316304</title>
<path fill="none" stroke="black" d="M581.6,-828.13C539.92,-820.79 460.92,-806.77 393.75,-794.25 377.71,-791.26 360.05,-787.87 344.79,-784.9"/>
<polygon fill="black" stroke="black" points="345.28,-782.86 338.99,-783.78 344.48,-786.98 345.28,-782.86"/>
</g>
<!-- n2201337318992 -->
<g id="node20" class="node">
<title>n2201337318992</title>
<path fill="#f6f6f6" stroke="black" d="M454.38,-794.25C454.38,-794.25 415.12,-794.25 415.12,-794.25 409.12,-794.25 403.12,-788.25 403.12,-782.25 403.12,-782.25 403.12,-770.25 403.12,-770.25 403.12,-764.25 409.12,-758.25 415.12,-758.25 415.12,-758.25 454.38,-758.25 454.38,-758.25 460.38,-758.25 466.38,-764.25 466.38,-770.25 466.38,-770.25 466.38,-782.25 466.38,-782.25 466.38,-788.25 460.38,-794.25 454.38,-794.25"/>
<text xml:space="preserve" text-anchor="middle" x="434.75" y="-772" font-family="Consolas" font-size="10.00">instrucao</text>
</g>
<!-- n2201300172624&#45;&gt;n2201337318992 -->
<g id="edge19" class="edge">
<title>n2201300172624&#45;&gt;n2201337318992</title>
<path fill="none" stroke="black" d="M581.41,-824.86C555.17,-817.25 515.73,-805.52 481.75,-794.25 479.17,-793.39 476.51,-792.49 473.84,-791.57"/>
<polygon fill="black" stroke="black" points="474.56,-789.6 468.21,-789.59 473.18,-793.56 474.56,-789.6"/>
</g>
<!-- n2201337319328 -->
<g id="node22" class="node">
<title>n2201337319328</title>
<path fill="#f6f6f6" stroke="black" d="M542.38,-794.25C542.38,-794.25 503.12,-794.25 503.12,-794.25 497.12,-794.25 491.12,-788.25 491.12,-782.25 491.12,-782.25 491.12,-770.25 491.12,-770.25 491.12,-764.25 497.12,-758.25 503.12,-758.25 503.12,-758.25 542.38,-758.25 542.38,-758.25 548.38,-758.25 554.38,-764.25 554.38,-770.25 554.38,-770.25 554.38,-782.25 554.38,-782.25 554.38,-788.25 548.38,-794.25 542.38,-794.25"/>
<text xml:space="preserve" text-anchor="middle" x="522.75" y="-772" font-family="Consolas" font-size="10.00">instrucao</text>
</g>
<!-- n2201300172624&#45;&gt;n2201337319328 -->
<g id="edge21" class="edge">
<title>n2201300172624&#45;&gt;n2201337319328</title>
<path fill="none" stroke="black" d="M583.39,-815.84C574.78,-810.36 565.17,-804.25 556.19,-798.53"/>
<polygon fill="black" stroke="black" points="557.56,-796.91 551.37,-795.46 555.31,-800.46 557.56,-796.91"/>
</g>
<!-- n2201337320896 -->
<g id="node40" class="node">
<title>n2201337320896</title>
<path fill="#f6f6f6" stroke="black" d="M630.38,-794.25C630.38,-794.25 591.12,-794.25 591.12,-794.25 585.12,-794.25 579.12,-788.25 579.12,-782.25 579.12,-782.25 579.12,-770.25 579.12,-770.25 579.12,-764.25 585.12,-758.25 591.12,-758.25 591.12,-758.25 630.38,-758.25 630.38,-758.25 636.38,-758.25 642.38,-764.25 642.38,-770.25 642.38,-770.25 642.38,-782.25 642.38,-782.25 642.38,-788.25 636.38,-794.25 630.38,-794.25"/>
<text xml:space="preserve" text-anchor="middle" x="610.75" y="-772" font-family="Consolas" font-size="10.00">instrucao</text>
</g>
<!-- n2201300172624&#45;&gt;n2201337320896 -->
<g id="edge39" class="edge">
<title>n2201300172624&#45;&gt;n2201337320896</title>
<path fill="none" stroke="black" d="M610.75,-815.84C610.75,-811.37 610.75,-806.48 610.75,-801.73"/>
<polygon fill="black" stroke="black" points="612.85,-801.97 610.75,-795.97 608.65,-801.97 612.85,-801.97"/>
</g>
<!-- n2201337321008 -->
<g id="node42" class="node">
<title>n2201337321008</title>
<path fill="#f6f6f6" stroke="black" d="M711.38,-794.25C711.38,-794.25 672.12,-794.25 672.12,-794.25 666.12,-794.25 660.12,-788.25 660.12,-782.25 660.12,-782.25 660.12,-770.25 660.12,-770.25 660.12,-764.25 666.12,-758.25 672.12,-758.25 672.12,-758.25 711.38,-758.25 711.38,-758.25 717.38,-758.25 723.38,-764.25 723.38,-770.25 723.38,-770.25 723.38,-782.25 723.38,-782.25 723.38,-788.25 717.38,-794.25 711.38,-794.25"/>
<text xml:space="preserve" text-anchor="middle" x="691.75" y="-772" font-family="Consolas" font-size="10.00">instrucao</text>
</g>
<!-- n2201300172624&#45;&gt;n2201337321008 -->
<g id="edge41" class="edge">
<title>n2201300172624&#45;&gt;n2201337321008</title>
<path fill="none" stroke="black" d="M635.93,-815.84C643.71,-810.47 652.36,-804.48 660.49,-798.86"/>
<polygon fill="black" stroke="black" points="661.59,-800.65 665.34,-795.51 659.21,-797.2 661.59,-800.65"/>
</g>
<!-- n2201337323920 -->
<g id="node66" class="node">
<title>n2201337323920</title>
<path fill="#f6f6f6" stroke="black" d="M792.38,-794.25C792.38,-794.25 753.12,-794.25 753.12,-794.25 747.12,-794.25 741.12,-788.25 741.12,-782.25 741.12,-782.25 741.12,-770.25 741.12,-770.25 741.12,-764.25 747.12,-758.25 753.12,-758.25 753.12,-758.25 792.38,-758.25 792.38,-758.25 798.38,-758.25 804.38,-764.25 804.38,-770.25 804.38,-770.25 804.38,-782.25 804.38,-782.25 804.38,-788.25 798.38,-794.25 792.38,-794.25"/>
<text xml:space="preserve" text-anchor="middle" x="772.75" y="-772" font-family="Consolas" font-size="10.00">instrucao</text>
</g>
<!-- n2201300172624&#45;&gt;n2201337323920 -->
<g id="edge65" class="edge">
<title>n2201300172624&#45;&gt;n2201337323920</title>
<path fill="none" stroke="black" d="M640.1,-824.7C664.97,-817.26 701.48,-805.86 732.75,-794.25 733.17,-794.09 733.59,-793.94 734.02,-793.78"/>
<polygon fill="black" stroke="black" points="734.74,-795.75 739.57,-791.61 733.22,-791.83 734.74,-795.75"/>
</g>
<!-- n2201337430672 -->
<g id="node68" class="node">
<title>n2201337430672</title>
<path fill="#eaf5ff" stroke="black" d="M864.75,-794.25C864.75,-794.25 834.75,-794.25 834.75,-794.25 828.75,-794.25 822.75,-788.25 822.75,-782.25 822.75,-782.25 822.75,-770.25 822.75,-770.25 822.75,-764.25 828.75,-758.25 834.75,-758.25 834.75,-758.25 864.75,-758.25 864.75,-758.25 870.75,-758.25 876.75,-764.25 876.75,-770.25 876.75,-770.25 876.75,-782.25 876.75,-782.25 876.75,-788.25 870.75,-794.25 864.75,-794.25"/>
<text xml:space="preserve" text-anchor="middle" x="849.75" y="-772" font-family="Consolas" font-size="10.00">&#39;&lt;EOF&gt;&#39;</text>
</g>
<!-- n2201300172624&#45;&gt;n2201337430672 -->
<g id="edge67" class="edge">
<title>n2201300172624&#45;&gt;n2201337430672</title>
<path fill="none" stroke="black" d="M640.24,-829.95C680.27,-824.93 753.71,-813.85 813.75,-794.25 814.38,-794.04 815.02,-793.83 815.66,-793.61"/>
<polygon fill="black" stroke="black" points="816.26,-795.62 821.11,-791.52 814.76,-791.7 816.26,-795.62"/>
</g>
<!-- n2201337316416 -->
<g id="node3" class="node">
<title>n2201337316416</title>
<path fill="#f6f6f6" stroke="black" d="M311.75,-734.12C311.75,-734.12 235.75,-734.12 235.75,-734.12 229.75,-734.12 223.75,-728.12 223.75,-722.12 223.75,-722.12 223.75,-710.12 223.75,-710.12 223.75,-704.12 229.75,-698.12 235.75,-698.12 235.75,-698.12 311.75,-698.12 311.75,-698.12 317.75,-698.12 323.75,-704.12 323.75,-710.12 323.75,-710.12 323.75,-722.12 323.75,-722.12 323.75,-728.12 317.75,-734.12 311.75,-734.12"/>
<text xml:space="preserve" text-anchor="middle" x="273.75" y="-711.88" font-family="Consolas" font-size="10.00">instrucaoSimples</text>
</g>
<!-- n2201337316304&#45;&gt;n2201337316416 -->
<g id="edge2" class="edge">
<title>n2201337316304&#45;&gt;n2201337316416</title>
<path fill="none" stroke="black" d="M296.15,-757.81C293.24,-752.52 289.99,-746.62 286.89,-740.99"/>
<polygon fill="black" stroke="black" points="288.81,-740.12 284.07,-735.88 285.13,-742.15 288.81,-740.12"/>
</g>
<!-- n2201337316864 -->
<g id="node4" class="node">
<title>n2201337316864</title>
<path fill="#f6f6f6" stroke="black" d="M211,-674C211,-674 166.5,-674 166.5,-674 160.5,-674 154.5,-668 154.5,-662 154.5,-662 154.5,-650 154.5,-650 154.5,-644 160.5,-638 166.5,-638 166.5,-638 211,-638 211,-638 217,-638 223,-644 223,-650 223,-650 223,-662 223,-662 223,-668 217,-674 211,-674"/>
<text xml:space="preserve" text-anchor="middle" x="188.75" y="-651.75" font-family="Consolas" font-size="10.00">atribuicao</text>
</g>
<!-- n2201337316416&#45;&gt;n2201337316864 -->
<g id="edge3" class="edge">
<title>n2201337316416&#45;&gt;n2201337316864</title>
<path fill="none" stroke="black" d="M248.25,-697.69C239.42,-691.65 229.43,-684.82 220.18,-678.49"/>
<polygon fill="black" stroke="black" points="221.62,-676.93 215.48,-675.28 219.25,-680.4 221.62,-676.93"/>
</g>
<!-- n2201337356304 -->
<g id="node19" class="node">
<title>n2201337356304</title>
<path fill="#eaf5ff" stroke="black" d="M288.75,-674C288.75,-674 258.75,-674 258.75,-674 252.75,-674 246.75,-668 246.75,-662 246.75,-662 246.75,-650 246.75,-650 246.75,-644 252.75,-638 258.75,-638 258.75,-638 288.75,-638 288.75,-638 294.75,-638 300.75,-644 300.75,-650 300.75,-650 300.75,-662 300.75,-662 300.75,-668 294.75,-674 288.75,-674"/>
<text xml:space="preserve" text-anchor="middle" x="273.75" y="-651.75" font-family="Consolas" font-size="10.00">&#39;;&#39;</text>
</g>
<!-- n2201337316416&#45;&gt;n2201337356304 -->
<g id="edge18" class="edge">
<title>n2201337316416&#45;&gt;n2201337356304</title>
<path fill="none" stroke="black" d="M273.75,-697.69C273.75,-692.63 273.75,-687.01 273.75,-681.6"/>
<polygon fill="black" stroke="black" points="275.85,-681.94 273.75,-675.94 271.65,-681.94 275.85,-681.94"/>
</g>
<!-- n2201337316976 -->
<g id="node5" class="node">
<title>n2201337316976</title>
<path fill="#f6f6f6" stroke="black" d="M119.5,-616C119.5,-616 12,-616 12,-616 6,-616 0,-610 0,-604 0,-604 0,-592 0,-592 0,-586 6,-580 12,-580 12,-580 119.5,-580 119.5,-580 125.5,-580 131.5,-586 131.5,-592 131.5,-592 131.5,-604 131.5,-604 131.5,-610 125.5,-616 119.5,-616"/>
<text xml:space="preserve" text-anchor="middle" x="65.75" y="-593.75" font-family="Consolas" font-size="10.00">ladoEsquerdoAtribuicao</text>
</g>
<!-- n2201337316864&#45;&gt;n2201337316976 -->
<g id="edge4" class="edge">
<title>n2201337316864&#45;&gt;n2201337316976</title>
<path fill="none" stroke="black" d="M154.16,-639.25C140.6,-633.08 124.88,-625.92 110.48,-619.36"/>
<polygon fill="black" stroke="black" points="111.67,-617.6 105.34,-617.03 109.93,-621.42 111.67,-617.6"/>
</g>
<!-- n2201337349520 -->
<g id="node7" class="node">
<title>n2201337349520</title>
<path fill="#eaf5ff" stroke="black" d="M191.75,-616C191.75,-616 161.75,-616 161.75,-616 155.75,-616 149.75,-610 149.75,-604 149.75,-604 149.75,-592 149.75,-592 149.75,-586 155.75,-580 161.75,-580 161.75,-580 191.75,-580 191.75,-580 197.75,-580 203.75,-586 203.75,-592 203.75,-592 203.75,-604 203.75,-604 203.75,-610 197.75,-616 191.75,-616"/>
<text xml:space="preserve" text-anchor="middle" x="176.75" y="-593.75" font-family="Consolas" font-size="10.00">&#39;=&#39;</text>
</g>
<!-- n2201337316864&#45;&gt;n2201337349520 -->
<g id="edge6" class="edge">
<title>n2201337316864&#45;&gt;n2201337349520</title>
<path fill="none" stroke="black" d="M185.02,-637.59C184.06,-633.12 183.01,-628.23 182,-623.48"/>
<polygon fill="black" stroke="black" points="184.07,-623.12 180.75,-617.69 179.96,-624 184.07,-623.12"/>
</g>
<!-- n2201337317424 -->
<g id="node8" class="node">
<title>n2201337317424</title>
<path fill="#f6f6f6" stroke="black" d="M273.38,-616C273.38,-616 234.12,-616 234.12,-616 228.12,-616 222.12,-610 222.12,-604 222.12,-604 222.12,-592 222.12,-592 222.12,-586 228.12,-580 234.12,-580 234.12,-580 273.38,-580 273.38,-580 279.38,-580 285.38,-586 285.38,-592 285.38,-592 285.38,-604 285.38,-604 285.38,-610 279.38,-616 273.38,-616"/>
<text xml:space="preserve" text-anchor="middle" x="253.75" y="-593.75" font-family="Consolas" font-size="10.00">expressao</text>
</g>
<!-- n2201337316864&#45;&gt;n2201337317424 -->
<g id="edge7" class="edge">
<title>n2201337316864&#45;&gt;n2201337317424</title>
<path fill="none" stroke="black" d="M208.96,-637.59C215.13,-632.27 222,-626.36 228.46,-620.79"/>
<polygon fill="black" stroke="black" points="229.45,-622.7 232.63,-617.2 226.71,-619.52 229.45,-622.7"/>
</g>
<!-- n2201337349264 -->
<g id="node6" class="node">
<title>n2201337349264</title>
<path fill="#eaf5ff" stroke="black" d="M80.75,-558C80.75,-558 50.75,-558 50.75,-558 44.75,-558 38.75,-552 38.75,-546 38.75,-546 38.75,-534 38.75,-534 38.75,-528 44.75,-522 50.75,-522 50.75,-522 80.75,-522 80.75,-522 86.75,-522 92.75,-528 92.75,-534 92.75,-534 92.75,-546 92.75,-546 92.75,-552 86.75,-558 80.75,-558"/>
<text xml:space="preserve" text-anchor="middle" x="65.75" y="-535.75" font-family="Consolas" font-size="10.00">&#39;a&#39;</text>
</g>
<!-- n2201337316976&#45;&gt;n2201337349264 -->
<g id="edge5" class="edge">
<title>n2201337316976&#45;&gt;n2201337349264</title>
<path fill="none" stroke="black" d="M65.75,-579.59C65.75,-575.12 65.75,-570.23 65.75,-565.48"/>
<polygon fill="black" stroke="black" points="67.85,-565.72 65.75,-559.72 63.65,-565.72 67.85,-565.72"/>
</g>
<!-- n2201337317536 -->
<g id="node9" class="node">
<title>n2201337317536</title>
<path fill="#f6f6f6" stroke="black" d="M294.38,-558C294.38,-558 213.12,-558 213.12,-558 207.12,-558 201.12,-552 201.12,-546 201.12,-546 201.12,-534 201.12,-534 201.12,-528 207.12,-522 213.12,-522 213.12,-522 294.38,-522 294.38,-522 300.38,-522 306.38,-528 306.38,-534 306.38,-534 306.38,-546 306.38,-546 306.38,-552 300.38,-558 294.38,-558"/>
<text xml:space="preserve" text-anchor="middle" x="253.75" y="-535.75" font-family="Consolas" font-size="10.00">expressaoOuLogico</text>
</g>
<!-- n2201337317424&#45;&gt;n2201337317536 -->
<g id="edge8" class="edge">
<title>n2201337317424&#45;&gt;n2201337317536</title>
<path fill="none" stroke="black" d="M253.75,-579.59C253.75,-575.12 253.75,-570.23 253.75,-565.48"/>
<polygon fill="black" stroke="black" points="255.85,-565.72 253.75,-559.72 251.65,-565.72 255.85,-565.72"/>
</g>
<!-- n2201337317648 -->
<g id="node10" class="node">
<title>n2201337317648</title>
<path fill="#f6f6f6" stroke="black" d="M291.75,-500C291.75,-500 215.75,-500 215.75,-500 209.75,-500 203.75,-494 203.75,-488 203.75,-488 203.75,-476 203.75,-476 203.75,-470 209.75,-464 215.75,-464 215.75,-464 291.75,-464 291.75,-464 297.75,-464 303.75,-470 303.75,-476 303.75,-476 303.75,-488 303.75,-488 303.75,-494 297.75,-500 291.75,-500"/>
<text xml:space="preserve" text-anchor="middle" x="253.75" y="-477.75" font-family="Consolas" font-size="10.00">expressaoELogico</text>
</g>
<!-- n2201337317536&#45;&gt;n2201337317648 -->
<g id="edge9" class="edge">
<title>n2201337317536&#45;&gt;n2201337317648</title>
<path fill="none" stroke="black" d="M253.75,-521.59C253.75,-517.12 253.75,-512.23 253.75,-507.48"/>
<polygon fill="black" stroke="black" points="255.85,-507.72 253.75,-501.72 251.65,-507.72 255.85,-507.72"/>
</g>
<!-- n2201337317760 -->
<g id="node11" class="node">
<title>n2201337317760</title>
<path fill="#f6f6f6" stroke="black" d="M299.62,-442C299.62,-442 207.88,-442 207.88,-442 201.88,-442 195.88,-436 195.88,-430 195.88,-430 195.88,-418 195.88,-418 195.88,-412 201.88,-406 207.88,-406 207.88,-406 299.62,-406 299.62,-406 305.62,-406 311.62,-412 311.62,-418 311.62,-418 311.62,-430 311.62,-430 311.62,-436 305.62,-442 299.62,-442"/>
<text xml:space="preserve" text-anchor="middle" x="253.75" y="-419.75" font-family="Consolas" font-size="10.00">expressaoComparacao</text>
</g>
<!-- n2201337317648&#45;&gt;n2201337317760 -->
<g id="edge10" class="edge">
<title>n2201337317648&#45;&gt;n2201337317760</title>
<path fill="none" stroke="black" d="M253.75,-463.59C253.75,-459.12 253.75,-454.23 253.75,-449.48"/>
<polygon fill="black" stroke="black" points="255.85,-449.72 253.75,-443.72 251.65,-449.72 255.85,-449.72"/>
</g>
<!-- n2201337317872 -->
<g id="node12" class="node">
<title>n2201337317872</title>
<path fill="#f6f6f6" stroke="black" d="M297,-384C297,-384 210.5,-384 210.5,-384 204.5,-384 198.5,-378 198.5,-372 198.5,-372 198.5,-360 198.5,-360 198.5,-354 204.5,-348 210.5,-348 210.5,-348 297,-348 297,-348 303,-348 309,-354 309,-360 309,-360 309,-372 309,-372 309,-378 303,-384 297,-384"/>
<text xml:space="preserve" text-anchor="middle" x="253.75" y="-361.75" font-family="Consolas" font-size="10.00">expressaoIntervalo</text>
</g>
<!-- n2201337317760&#45;&gt;n2201337317872 -->
<g id="edge11" class="edge">
<title>n2201337317760&#45;&gt;n2201337317872</title>
<path fill="none" stroke="black" d="M253.75,-405.59C253.75,-401.12 253.75,-396.23 253.75,-391.48"/>
<polygon fill="black" stroke="black" points="255.85,-391.72 253.75,-385.72 251.65,-391.72 255.85,-391.72"/>
</g>
<!-- n2201337317984 -->
<g id="node13" class="node">
<title>n2201337317984</title>
<path fill="#f6f6f6" stroke="black" d="M291.75,-326C291.75,-326 215.75,-326 215.75,-326 209.75,-326 203.75,-320 203.75,-314 203.75,-314 203.75,-302 203.75,-302 203.75,-296 209.75,-290 215.75,-290 215.75,-290 291.75,-290 291.75,-290 297.75,-290 303.75,-296 303.75,-302 303.75,-302 303.75,-314 303.75,-314 303.75,-320 297.75,-326 291.75,-326"/>
<text xml:space="preserve" text-anchor="middle" x="253.75" y="-303.75" font-family="Consolas" font-size="10.00">expressaoAditiva</text>
</g>
<!-- n2201337317872&#45;&gt;n2201337317984 -->
<g id="edge12" class="edge">
<title>n2201337317872&#45;&gt;n2201337317984</title>
<path fill="none" stroke="black" d="M253.75,-347.59C253.75,-343.12 253.75,-338.23 253.75,-333.48"/>
<polygon fill="black" stroke="black" points="255.85,-333.72 253.75,-327.72 251.65,-333.72 255.85,-333.72"/>
</g>
<!-- n2201337318096 -->
<g id="node14" class="node">
<title>n2201337318096</title>
<path fill="#f6f6f6" stroke="black" d="M310.12,-268C310.12,-268 197.38,-268 197.38,-268 191.38,-268 185.38,-262 185.38,-256 185.38,-256 185.38,-244 185.38,-244 185.38,-238 191.38,-232 197.38,-232 197.38,-232 310.12,-232 310.12,-232 316.12,-232 322.12,-238 322.12,-244 322.12,-244 322.12,-256 322.12,-256 322.12,-262 316.12,-268 310.12,-268"/>
<text xml:space="preserve" text-anchor="middle" x="253.75" y="-245.75" font-family="Consolas" font-size="10.00">expressaoMultiplicativa</text>
</g>
<!-- n2201337317984&#45;&gt;n2201337318096 -->
<g id="edge13" class="edge">
<title>n2201337317984&#45;&gt;n2201337318096</title>
<path fill="none" stroke="black" d="M253.75,-289.59C253.75,-285.12 253.75,-280.23 253.75,-275.48"/>
<polygon fill="black" stroke="black" points="255.85,-275.72 253.75,-269.72 251.65,-275.72 255.85,-275.72"/>
</g>
<!-- n2201337318208 -->
<g id="node15" class="node">
<title>n2201337318208</title>
<path fill="#f6f6f6" stroke="black" d="M294.38,-210C294.38,-210 213.12,-210 213.12,-210 207.12,-210 201.12,-204 201.12,-198 201.12,-198 201.12,-186 201.12,-186 201.12,-180 207.12,-174 213.12,-174 213.12,-174 294.38,-174 294.38,-174 300.38,-174 306.38,-180 306.38,-186 306.38,-186 306.38,-198 306.38,-198 306.38,-204 300.38,-210 294.38,-210"/>
<text xml:space="preserve" text-anchor="middle" x="253.75" y="-187.75" font-family="Consolas" font-size="10.00">expressaoPotencia</text>
</g>
<!-- n2201337318096&#45;&gt;n2201337318208 -->
<g id="edge14" class="edge">
<title>n2201337318096&#45;&gt;n2201337318208</title>
<path fill="none" stroke="black" d="M253.75,-231.59C253.75,-227.12 253.75,-222.23 253.75,-217.48"/>
<polygon fill="black" stroke="black" points="255.85,-217.72 253.75,-211.72 251.65,-217.72 255.85,-217.72"/>
</g>
<!-- n2201337318320 -->
<g id="node16" class="node">
<title>n2201337318320</title>
<path fill="#f6f6f6" stroke="black" d="M289.12,-152C289.12,-152 218.38,-152 218.38,-152 212.38,-152 206.38,-146 206.38,-140 206.38,-140 206.38,-128 206.38,-128 206.38,-122 212.38,-116 218.38,-116 218.38,-116 289.12,-116 289.12,-116 295.12,-116 301.12,-122 301.12,-128 301.12,-128 301.12,-140 301.12,-140 301.12,-146 295.12,-152 289.12,-152"/>
<text xml:space="preserve" text-anchor="middle" x="253.75" y="-129.75" font-family="Consolas" font-size="10.00">expressaoUnaria</text>
</g>
<!-- n2201337318208&#45;&gt;n2201337318320 -->
<g id="edge15" class="edge">
<title>n2201337318208&#45;&gt;n2201337318320</title>
<path fill="none" stroke="black" d="M253.75,-173.59C253.75,-169.12 253.75,-164.23 253.75,-159.48"/>
<polygon fill="black" stroke="black" points="255.85,-159.72 253.75,-153.72 251.65,-159.72 255.85,-159.72"/>
</g>
<!-- n2201337318432 -->
<g id="node17" class="node">
<title>n2201337318432</title>
<path fill="#f6f6f6" stroke="black" d="M268.75,-94C268.75,-94 238.75,-94 238.75,-94 232.75,-94 226.75,-88 226.75,-82 226.75,-82 226.75,-70 226.75,-70 226.75,-64 232.75,-58 238.75,-58 238.75,-58 268.75,-58 268.75,-58 274.75,-58 280.75,-64 280.75,-70 280.75,-70 280.75,-82 280.75,-82 280.75,-88 274.75,-94 268.75,-94"/>
<text xml:space="preserve" text-anchor="middle" x="253.75" y="-71.75" font-family="Consolas" font-size="10.00">atomo</text>
</g>
<!-- n2201337318320&#45;&gt;n2201337318432 -->
<g id="edge16" class="edge">
<title>n2201337318320&#45;&gt;n2201337318432</title>
<path fill="none" stroke="black" d="M253.75,-115.59C253.75,-111.12 253.75,-106.23 253.75,-101.48"/>
<polygon fill="black" stroke="black" points="255.85,-101.72 253.75,-95.72 251.65,-101.72 255.85,-101.72"/>
</g>
<!-- n2201337350864 -->
<g id="node18" class="node">
<title>n2201337350864</title>
<path fill="#eaf5ff" stroke="black" d="M268.75,-36C268.75,-36 238.75,-36 238.75,-36 232.75,-36 226.75,-30 226.75,-24 226.75,-24 226.75,-12 226.75,-12 226.75,-6 232.75,0 238.75,0 238.75,0 268.75,0 268.75,0 274.75,0 280.75,-6 280.75,-12 280.75,-12 280.75,-24 280.75,-24 280.75,-30 274.75,-36 268.75,-36"/>
<text xml:space="preserve" text-anchor="middle" x="253.75" y="-13.75" font-family="Consolas" font-size="10.00">&#39;10&#39;</text>
</g>
<!-- n2201337318432&#45;&gt;n2201337350864 -->
<g id="edge17" class="edge">
<title>n2201337318432&#45;&gt;n2201337350864</title>
<path fill="none" stroke="black" d="M253.75,-57.59C253.75,-53.12 253.75,-48.23 253.75,-43.48"/>
<polygon fill="black" stroke="black" points="255.85,-43.72 253.75,-37.72 251.65,-43.72 255.85,-43.72"/>
</g>
<!-- n2201337356560 -->
<g id="node21" class="node">
<title>n2201337356560</title>
<path fill="#eaf5ff" stroke="black" d="M439.75,-736.25C439.75,-736.25 409.75,-736.25 409.75,-736.25 403.75,-736.25 397.75,-730.25 397.75,-724.25 397.75,-724.25 397.75,-708 397.75,-708 397.75,-702 403.75,-696 409.75,-696 409.75,-696 439.75,-696 439.75,-696 445.75,-696 451.75,-702 451.75,-708 451.75,-708 451.75,-724.25 451.75,-724.25 451.75,-730.25 445.75,-736.25 439.75,-736.25"/>
<text xml:space="preserve" text-anchor="middle" x="424.75" y="-722.75" font-family="Consolas" font-size="10.00">&#39;&#13;</text>
<text xml:space="preserve" text-anchor="middle" x="424.75" y="-701" font-family="Consolas" font-size="10.00">&#39;</text>
</g>
<!-- n2201337318992&#45;&gt;n2201337356560 -->
<g id="edge20" class="edge">
<title>n2201337318992&#45;&gt;n2201337356560</title>
<path fill="none" stroke="black" d="M431.75,-757.81C430.99,-753.42 430.17,-748.61 429.35,-743.88"/>
<polygon fill="black" stroke="black" points="431.44,-743.63 428.35,-738.08 427.3,-744.35 431.44,-743.63"/>
</g>
<!-- n2201337319440 -->
<g id="node23" class="node">
<title>n2201337319440</title>
<path fill="#f6f6f6" stroke="black" d="M557.75,-734.12C557.75,-734.12 481.75,-734.12 481.75,-734.12 475.75,-734.12 469.75,-728.12 469.75,-722.12 469.75,-722.12 469.75,-710.12 469.75,-710.12 469.75,-704.12 475.75,-698.12 481.75,-698.12 481.75,-698.12 557.75,-698.12 557.75,-698.12 563.75,-698.12 569.75,-704.12 569.75,-710.12 569.75,-710.12 569.75,-722.12 569.75,-722.12 569.75,-728.12 563.75,-734.12 557.75,-734.12"/>
<text xml:space="preserve" text-anchor="middle" x="519.75" y="-711.88" font-family="Consolas" font-size="10.00">instrucaoSimples</text>
</g>
<!-- n2201337319328&#45;&gt;n2201337319440 -->
<g id="edge22" class="edge">
<title>n2201337319328&#45;&gt;n2201337319440</title>
<path fill="none" stroke="black" d="M521.85,-757.81C521.59,-752.75 521.3,-747.13 521.02,-741.72"/>
<polygon fill="black" stroke="black" points="523.13,-741.95 520.73,-736.06 518.94,-742.16 523.13,-741.95"/>
</g>
<!-- n2201337319552 -->
<g id="node24" class="node">
<title>n2201337319552</title>
<path fill="#f6f6f6" stroke="black" d="M502,-674C502,-674 457.5,-674 457.5,-674 451.5,-674 445.5,-668 445.5,-662 445.5,-662 445.5,-650 445.5,-650 445.5,-644 451.5,-638 457.5,-638 457.5,-638 502,-638 502,-638 508,-638 514,-644 514,-650 514,-650 514,-662 514,-662 514,-668 508,-674 502,-674"/>
<text xml:space="preserve" text-anchor="middle" x="479.75" y="-651.75" font-family="Consolas" font-size="10.00">atribuicao</text>
</g>
<!-- n2201337319440&#45;&gt;n2201337319552 -->
<g id="edge23" class="edge">
<title>n2201337319440&#45;&gt;n2201337319552</title>
<path fill="none" stroke="black" d="M507.75,-697.69C504.03,-692.28 499.87,-686.24 495.92,-680.5"/>
<polygon fill="black" stroke="black" points="497.73,-679.43 492.6,-675.67 494.27,-681.81 497.73,-679.43"/>
</g>
<!-- n2201337356816 -->
<g id="node39" class="node">
<title>n2201337356816</title>
<path fill="#eaf5ff" stroke="black" d="M573.75,-674C573.75,-674 543.75,-674 543.75,-674 537.75,-674 531.75,-668 531.75,-662 531.75,-662 531.75,-650 531.75,-650 531.75,-644 537.75,-638 543.75,-638 543.75,-638 573.75,-638 573.75,-638 579.75,-638 585.75,-644 585.75,-650 585.75,-650 585.75,-662 585.75,-662 585.75,-668 579.75,-674 573.75,-674"/>
<text xml:space="preserve" text-anchor="middle" x="558.75" y="-651.75" font-family="Consolas" font-size="10.00">&#39;;&#39;</text>
</g>
<!-- n2201337319440&#45;&gt;n2201337356816 -->
<g id="edge38" class="edge">
<title>n2201337319440&#45;&gt;n2201337356816</title>
<path fill="none" stroke="black" d="M531.45,-697.69C535.08,-692.28 539.13,-686.24 542.99,-680.5"/>
<polygon fill="black" stroke="black" points="544.61,-681.84 546.21,-675.68 541.13,-679.5 544.61,-681.84"/>
</g>
<!-- n2201337319664 -->
<g id="node25" class="node">
<title>n2201337319664</title>
<path fill="#f6f6f6" stroke="black" d="M422.5,-616C422.5,-616 315,-616 315,-616 309,-616 303,-610 303,-604 303,-604 303,-592 303,-592 303,-586 309,-580 315,-580 315,-580 422.5,-580 422.5,-580 428.5,-580 434.5,-586 434.5,-592 434.5,-592 434.5,-604 434.5,-604 434.5,-610 428.5,-616 422.5,-616"/>
<text xml:space="preserve" text-anchor="middle" x="368.75" y="-593.75" font-family="Consolas" font-size="10.00">ladoEsquerdoAtribuicao</text>
</g>
<!-- n2201337319552&#45;&gt;n2201337319664 -->
<g id="edge24" class="edge">
<title>n2201337319552&#45;&gt;n2201337319664</title>
<path fill="none" stroke="black" d="M445.24,-637.59C433.96,-631.9 421.33,-625.53 409.63,-619.62"/>
<polygon fill="black" stroke="black" points="410.9,-617.91 404.59,-617.08 409,-621.66 410.9,-617.91"/>
</g>
<!-- n2201337356752 -->
<g id="node27" class="node">
<title>n2201337356752</title>
<path fill="#eaf5ff" stroke="black" d="M494.75,-616C494.75,-616 464.75,-616 464.75,-616 458.75,-616 452.75,-610 452.75,-604 452.75,-604 452.75,-592 452.75,-592 452.75,-586 458.75,-580 464.75,-580 464.75,-580 494.75,-580 494.75,-580 500.75,-580 506.75,-586 506.75,-592 506.75,-592 506.75,-604 506.75,-604 506.75,-610 500.75,-616 494.75,-616"/>
<text xml:space="preserve" text-anchor="middle" x="479.75" y="-593.75" font-family="Consolas" font-size="10.00">&#39;=&#39;</text>
</g>
<!-- n2201337319552&#45;&gt;n2201337356752 -->
<g id="edge26" class="edge">
<title>n2201337319552&#45;&gt;n2201337356752</title>
<path fill="none" stroke="black" d="M479.75,-637.59C479.75,-633.12 479.75,-628.23 479.75,-623.48"/>
<polygon fill="black" stroke="black" points="481.85,-623.72 479.75,-617.72 477.65,-623.72 481.85,-623.72"/>
</g>
<!-- n2201337319776 -->
<g id="node28" class="node">
<title>n2201337319776</title>
<path fill="#f6f6f6" stroke="black" d="M576.38,-616C576.38,-616 537.12,-616 537.12,-616 531.12,-616 525.12,-610 525.12,-604 525.12,-604 525.12,-592 525.12,-592 525.12,-586 531.12,-580 537.12,-580 537.12,-580 576.38,-580 576.38,-580 582.38,-580 588.38,-586 588.38,-592 588.38,-592 588.38,-604 588.38,-604 588.38,-610 582.38,-616 576.38,-616"/>
<text xml:space="preserve" text-anchor="middle" x="556.75" y="-593.75" font-family="Consolas" font-size="10.00">expressao</text>
</g>
<!-- n2201337319552&#45;&gt;n2201337319776 -->
<g id="edge27" class="edge">
<title>n2201337319552&#45;&gt;n2201337319776</title>
<path fill="none" stroke="black" d="M503.69,-637.59C511.08,-632.22 519.31,-626.23 527.03,-620.61"/>
<polygon fill="black" stroke="black" points="527.98,-622.52 531.6,-617.29 525.51,-619.12 527.98,-622.52"/>
</g>
<!-- n2201337356688 -->
<g id="node26" class="node">
<title>n2201337356688</title>
<path fill="#eaf5ff" stroke="black" d="M383.75,-558C383.75,-558 353.75,-558 353.75,-558 347.75,-558 341.75,-552 341.75,-546 341.75,-546 341.75,-534 341.75,-534 341.75,-528 347.75,-522 353.75,-522 353.75,-522 383.75,-522 383.75,-522 389.75,-522 395.75,-528 395.75,-534 395.75,-534 395.75,-546 395.75,-546 395.75,-552 389.75,-558 383.75,-558"/>
<text xml:space="preserve" text-anchor="middle" x="368.75" y="-535.75" font-family="Consolas" font-size="10.00">&#39;b&#39;</text>
</g>
<!-- n2201337319664&#45;&gt;n2201337356688 -->
<g id="edge25" class="edge">
<title>n2201337319664&#45;&gt;n2201337356688</title>
<path fill="none" stroke="black" d="M368.75,-579.59C368.75,-575.12 368.75,-570.23 368.75,-565.48"/>
<polygon fill="black" stroke="black" points="370.85,-565.72 368.75,-559.72 366.65,-565.72 370.85,-565.72"/>
</g>
<!-- n2201337319888 -->
<g id="node29" class="node">
<title>n2201337319888</title>
<path fill="#f6f6f6" stroke="black" d="M597.38,-558C597.38,-558 516.12,-558 516.12,-558 510.12,-558 504.12,-552 504.12,-546 504.12,-546 504.12,-534 504.12,-534 504.12,-528 510.12,-522 516.12,-522 516.12,-522 597.38,-522 597.38,-522 603.38,-522 609.38,-528 609.38,-534 609.38,-534 609.38,-546 609.38,-546 609.38,-552 603.38,-558 597.38,-558"/>
<text xml:space="preserve" text-anchor="middle" x="556.75" y="-535.75" font-family="Consolas" font-size="10.00">expressaoOuLogico</text>
</g>
<!-- n2201337319776&#45;&gt;n2201337319888 -->
<g id="edge28" class="edge">
<title>n2201337319776&#45;&gt;n2201337319888</title>
<path fill="none" stroke="black" d="M556.75,-579.59C556.75,-575.12 556.75,-570.23 556.75,-565.48"/>
<polygon fill="black" stroke="black" points="558.85,-565.72 556.75,-559.72 554.65,-565.72 558.85,-565.72"/>
</g>
<!-- n2201337320000 -->
<g id="node30" class="node">
<title>n2201337320000</title>
<path fill="#f6f6f6" stroke="black" d="M594.75,-500C594.75,-500 518.75,-500 518.75,-500 512.75,-500 506.75,-494 506.75,-488 506.75,-488 506.75,-476 506.75,-476 506.75,-470 512.75,-464 518.75,-464 518.75,-464 594.75,-464 594.75,-464 600.75,-464 606.75,-470 606.75,-476 606.75,-476 606.75,-488 606.75,-488 606.75,-494 600.75,-500 594.75,-500"/>
<text xml:space="preserve" text-anchor="middle" x="556.75" y="-477.75" font-family="Consolas" font-size="10.00">expressaoELogico</text>
</g>
<!-- n2201337319888&#45;&gt;n2201337320000 -->
<g id="edge29" class="edge">
<title>n2201337319888&#45;&gt;n2201337320000</title>
<path fill="none" stroke="black" d="M556.75,-521.59C556.75,-517.12 556.75,-512.23 556.75,-507.48"/>
<polygon fill="black" stroke="black" points="558.85,-507.72 556.75,-501.72 554.65,-507.72 558.85,-507.72"/>
</g>
<!-- n2201337320112 -->
<g id="node31" class="node">
<title>n2201337320112</title>
<path fill="#f6f6f6" stroke="black" d="M602.62,-442C602.62,-442 510.88,-442 510.88,-442 504.88,-442 498.88,-436 498.88,-430 498.88,-430 498.88,-418 498.88,-418 498.88,-412 504.88,-406 510.88,-406 510.88,-406 602.62,-406 602.62,-406 608.62,-406 614.62,-412 614.62,-418 614.62,-418 614.62,-430 614.62,-430 614.62,-436 608.62,-442 602.62,-442"/>
<text xml:space="preserve" text-anchor="middle" x="556.75" y="-419.75" font-family="Consolas" font-size="10.00">expressaoComparacao</text>
</g>
<!-- n2201337320000&#45;&gt;n2201337320112 -->
<g id="edge30" class="edge">
<title>n2201337320000&#45;&gt;n2201337320112</title>
<path fill="none" stroke="black" d="M556.75,-463.59C556.75,-459.12 556.75,-454.23 556.75,-449.48"/>
<polygon fill="black" stroke="black" points="558.85,-449.72 556.75,-443.72 554.65,-449.72 558.85,-449.72"/>
</g>
<!-- n2201337320224 -->
<g id="node32" class="node">
<title>n2201337320224</title>
<path fill="#f6f6f6" stroke="black" d="M600,-384C600,-384 513.5,-384 513.5,-384 507.5,-384 501.5,-378 501.5,-372 501.5,-372 501.5,-360 501.5,-360 501.5,-354 507.5,-348 513.5,-348 513.5,-348 600,-348 600,-348 606,-348 612,-354 612,-360 612,-360 612,-372 612,-372 612,-378 606,-384 600,-384"/>
<text xml:space="preserve" text-anchor="middle" x="556.75" y="-361.75" font-family="Consolas" font-size="10.00">expressaoIntervalo</text>
</g>
<!-- n2201337320112&#45;&gt;n2201337320224 -->
<g id="edge31" class="edge">
<title>n2201337320112&#45;&gt;n2201337320224</title>
<path fill="none" stroke="black" d="M556.75,-405.59C556.75,-401.12 556.75,-396.23 556.75,-391.48"/>
<polygon fill="black" stroke="black" points="558.85,-391.72 556.75,-385.72 554.65,-391.72 558.85,-391.72"/>
</g>
<!-- n2201337320336 -->
<g id="node33" class="node">
<title>n2201337320336</title>
<path fill="#f6f6f6" stroke="black" d="M594.75,-326C594.75,-326 518.75,-326 518.75,-326 512.75,-326 506.75,-320 506.75,-314 506.75,-314 506.75,-302 506.75,-302 506.75,-296 512.75,-290 518.75,-290 518.75,-290 594.75,-290 594.75,-290 600.75,-290 606.75,-296 606.75,-302 606.75,-302 606.75,-314 606.75,-314 606.75,-320 600.75,-326 594.75,-326"/>
<text xml:space="preserve" text-anchor="middle" x="556.75" y="-303.75" font-family="Consolas" font-size="10.00">expressaoAditiva</text>
</g>
<!-- n2201337320224&#45;&gt;n2201337320336 -->
<g id="edge32" class="edge">
<title>n2201337320224&#45;&gt;n2201337320336</title>
<path fill="none" stroke="black" d="M556.75,-347.59C556.75,-343.12 556.75,-338.23 556.75,-333.48"/>
<polygon fill="black" stroke="black" points="558.85,-333.72 556.75,-327.72 554.65,-333.72 558.85,-333.72"/>
</g>
<!-- n2201337320448 -->
<g id="node34" class="node">
<title>n2201337320448</title>
<path fill="#f6f6f6" stroke="black" d="M613.12,-268C613.12,-268 500.38,-268 500.38,-268 494.38,-268 488.38,-262 488.38,-256 488.38,-256 488.38,-244 488.38,-244 488.38,-238 494.38,-232 500.38,-232 500.38,-232 613.12,-232 613.12,-232 619.12,-232 625.12,-238 625.12,-244 625.12,-244 625.12,-256 625.12,-256 625.12,-262 619.12,-268 613.12,-268"/>
<text xml:space="preserve" text-anchor="middle" x="556.75" y="-245.75" font-family="Consolas" font-size="10.00">expressaoMultiplicativa</text>
</g>
<!-- n2201337320336&#45;&gt;n2201337320448 -->
<g id="edge33" class="edge">
<title>n2201337320336&#45;&gt;n2201337320448</title>
<path fill="none" stroke="black" d="M556.75,-289.59C556.75,-285.12 556.75,-280.23 556.75,-275.48"/>
<polygon fill="black" stroke="black" points="558.85,-275.72 556.75,-269.72 554.65,-275.72 558.85,-275.72"/>
</g>
<!-- n2201337320560 -->
<g id="node35" class="node">
<title>n2201337320560</title>
<path fill="#f6f6f6" stroke="black" d="M597.38,-210C597.38,-210 516.12,-210 516.12,-210 510.12,-210 504.12,-204 504.12,-198 504.12,-198 504.12,-186 504.12,-186 504.12,-180 510.12,-174 516.12,-174 516.12,-174 597.38,-174 597.38,-174 603.38,-174 609.38,-180 609.38,-186 609.38,-186 609.38,-198 609.38,-198 609.38,-204 603.38,-210 597.38,-210"/>
<text xml:space="preserve" text-anchor="middle" x="556.75" y="-187.75" font-family="Consolas" font-size="10.00">expressaoPotencia</text>
</g>
<!-- n2201337320448&#45;&gt;n2201337320560 -->
<g id="edge34" class="edge">
<title>n2201337320448&#45;&gt;n2201337320560</title>
<path fill="none" stroke="black" d="M556.75,-231.59C556.75,-227.12 556.75,-222.23 556.75,-217.48"/>
<polygon fill="black" stroke="black" points="558.85,-217.72 556.75,-211.72 554.65,-217.72 558.85,-217.72"/>
</g>
<!-- n2201337320672 -->
<g id="node36" class="node">
<title>n2201337320672</title>
<path fill="#f6f6f6" stroke="black" d="M592.12,-152C592.12,-152 521.38,-152 521.38,-152 515.38,-152 509.38,-146 509.38,-140 509.38,-140 509.38,-128 509.38,-128 509.38,-122 515.38,-116 521.38,-116 521.38,-116 592.12,-116 592.12,-116 598.12,-116 604.12,-122 604.12,-128 604.12,-128 604.12,-140 604.12,-140 604.12,-146 598.12,-152 592.12,-152"/>
<text xml:space="preserve" text-anchor="middle" x="556.75" y="-129.75" font-family="Consolas" font-size="10.00">expressaoUnaria</text>
</g>
<!-- n2201337320560&#45;&gt;n2201337320672 -->
<g id="edge35" class="edge">
<title>n2201337320560&#45;&gt;n2201337320672</title>
<path fill="none" stroke="black" d="M556.75,-173.59C556.75,-169.12 556.75,-164.23 556.75,-159.48"/>
<polygon fill="black" stroke="black" points="558.85,-159.72 556.75,-153.72 554.65,-159.72 558.85,-159.72"/>
</g>
<!-- n2201337320784 -->
<g id="node37" class="node">
<title>n2201337320784</title>
<path fill="#f6f6f6" stroke="black" d="M571.75,-94C571.75,-94 541.75,-94 541.75,-94 535.75,-94 529.75,-88 529.75,-82 529.75,-82 529.75,-70 529.75,-70 529.75,-64 535.75,-58 541.75,-58 541.75,-58 571.75,-58 571.75,-58 577.75,-58 583.75,-64 583.75,-70 583.75,-70 583.75,-82 583.75,-82 583.75,-88 577.75,-94 571.75,-94"/>
<text xml:space="preserve" text-anchor="middle" x="556.75" y="-71.75" font-family="Consolas" font-size="10.00">atomo</text>
</g>
<!-- n2201337320672&#45;&gt;n2201337320784 -->
<g id="edge36" class="edge">
<title>n2201337320672&#45;&gt;n2201337320784</title>
<path fill="none" stroke="black" d="M556.75,-115.59C556.75,-111.12 556.75,-106.23 556.75,-101.48"/>
<polygon fill="black" stroke="black" points="558.85,-101.72 556.75,-95.72 554.65,-101.72 558.85,-101.72"/>
</g>
<!-- n2201337356240 -->
<g id="node38" class="node">
<title>n2201337356240</title>
<path fill="#eaf5ff" stroke="black" d="M571.75,-36C571.75,-36 541.75,-36 541.75,-36 535.75,-36 529.75,-30 529.75,-24 529.75,-24 529.75,-12 529.75,-12 529.75,-6 535.75,0 541.75,0 541.75,0 571.75,0 571.75,0 577.75,0 583.75,-6 583.75,-12 583.75,-12 583.75,-24 583.75,-24 583.75,-30 577.75,-36 571.75,-36"/>
<text xml:space="preserve" text-anchor="middle" x="556.75" y="-13.75" font-family="Consolas" font-size="10.00">&#39;20&#39;</text>
</g>
<!-- n2201337320784&#45;&gt;n2201337356240 -->
<g id="edge37" class="edge">
<title>n2201337320784&#45;&gt;n2201337356240</title>
<path fill="none" stroke="black" d="M556.75,-57.59C556.75,-53.12 556.75,-48.23 556.75,-43.48"/>
<polygon fill="black" stroke="black" points="558.85,-43.72 556.75,-37.72 554.65,-43.72 558.85,-43.72"/>
</g>
<!-- n2201337356880 -->
<g id="node41" class="node">
<title>n2201337356880</title>
<path fill="#eaf5ff" stroke="black" d="M629.75,-736.25C629.75,-736.25 599.75,-736.25 599.75,-736.25 593.75,-736.25 587.75,-730.25 587.75,-724.25 587.75,-724.25 587.75,-708 587.75,-708 587.75,-702 593.75,-696 599.75,-696 599.75,-696 629.75,-696 629.75,-696 635.75,-696 641.75,-702 641.75,-708 641.75,-708 641.75,-724.25 641.75,-724.25 641.75,-730.25 635.75,-736.25 629.75,-736.25"/>
<text xml:space="preserve" text-anchor="middle" x="614.75" y="-722.75" font-family="Consolas" font-size="10.00">&#39;&#13;</text>
<text xml:space="preserve" text-anchor="middle" x="614.75" y="-701" font-family="Consolas" font-size="10.00">&#39;</text>
</g>
<!-- n2201337320896&#45;&gt;n2201337356880 -->
<g id="edge40" class="edge">
<title>n2201337320896&#45;&gt;n2201337356880</title>
<path fill="none" stroke="black" d="M611.95,-757.81C612.25,-753.42 612.58,-748.61 612.91,-743.88"/>
<polygon fill="black" stroke="black" points="614.99,-744.23 613.31,-738.1 610.8,-743.94 614.99,-744.23"/>
</g>
<!-- n2201337321120 -->
<g id="node43" class="node">
<title>n2201337321120</title>
<path fill="#f6f6f6" stroke="black" d="M747.75,-734.12C747.75,-734.12 671.75,-734.12 671.75,-734.12 665.75,-734.12 659.75,-728.12 659.75,-722.12 659.75,-722.12 659.75,-710.12 659.75,-710.12 659.75,-704.12 665.75,-698.12 671.75,-698.12 671.75,-698.12 747.75,-698.12 747.75,-698.12 753.75,-698.12 759.75,-704.12 759.75,-710.12 759.75,-710.12 759.75,-722.12 759.75,-722.12 759.75,-728.12 753.75,-734.12 747.75,-734.12"/>
<text xml:space="preserve" text-anchor="middle" x="709.75" y="-711.88" font-family="Consolas" font-size="10.00">instrucaoSimples</text>
</g>
<!-- n2201337321008&#45;&gt;n2201337321120 -->
<g id="edge42" class="edge">
<title>n2201337321008&#45;&gt;n2201337321120</title>
<path fill="none" stroke="black" d="M697.15,-757.81C698.72,-752.75 700.46,-747.13 702.13,-741.72"/>
<polygon fill="black" stroke="black" points="704.14,-742.35 703.91,-736 700.12,-741.11 704.14,-742.35"/>
</g>
<!-- n2201337321232 -->
<g id="node44" class="node">
<title>n2201337321232</title>
<path fill="#f6f6f6" stroke="black" d="M732,-674C732,-674 687.5,-674 687.5,-674 681.5,-674 675.5,-668 675.5,-662 675.5,-662 675.5,-650 675.5,-650 675.5,-644 681.5,-638 687.5,-638 687.5,-638 732,-638 732,-638 738,-638 744,-644 744,-650 744,-650 744,-662 744,-662 744,-668 738,-674 732,-674"/>
<text xml:space="preserve" text-anchor="middle" x="709.75" y="-651.75" font-family="Consolas" font-size="10.00">atribuicao</text>
</g>
<!-- n2201337321120&#45;&gt;n2201337321232 -->
<g id="edge43" class="edge">
<title>n2201337321120&#45;&gt;n2201337321232</title>
<path fill="none" stroke="black" d="M709.75,-697.69C709.75,-692.63 709.75,-687.01 709.75,-681.6"/>
<polygon fill="black" stroke="black" points="711.85,-681.94 709.75,-675.94 707.65,-681.94 711.85,-681.94"/>
</g>
<!-- n2201337430544 -->
<g id="node65" class="node">
<title>n2201337430544</title>
<path fill="#eaf5ff" stroke="black" d="M803.75,-674C803.75,-674 773.75,-674 773.75,-674 767.75,-674 761.75,-668 761.75,-662 761.75,-662 761.75,-650 761.75,-650 761.75,-644 767.75,-638 773.75,-638 773.75,-638 803.75,-638 803.75,-638 809.75,-638 815.75,-644 815.75,-650 815.75,-650 815.75,-662 815.75,-662 815.75,-668 809.75,-674 803.75,-674"/>
<text xml:space="preserve" text-anchor="middle" x="788.75" y="-651.75" font-family="Consolas" font-size="10.00">&#39;;&#39;</text>
</g>
<!-- n2201337321120&#45;&gt;n2201337430544 -->
<g id="edge64" class="edge">
<title>n2201337321120&#45;&gt;n2201337430544</title>
<path fill="none" stroke="black" d="M733.45,-697.69C741.58,-691.71 750.77,-684.95 759.29,-678.67"/>
<polygon fill="black" stroke="black" points="760.26,-680.57 763.85,-675.32 757.77,-677.19 760.26,-680.57"/>
</g>
<!-- n2201337321344 -->
<g id="node45" class="node">
<title>n2201337321344</title>
<path fill="#f6f6f6" stroke="black" d="M725.5,-616C725.5,-616 618,-616 618,-616 612,-616 606,-610 606,-604 606,-604 606,-592 606,-592 606,-586 612,-580 618,-580 618,-580 725.5,-580 725.5,-580 731.5,-580 737.5,-586 737.5,-592 737.5,-592 737.5,-604 737.5,-604 737.5,-610 731.5,-616 725.5,-616"/>
<text xml:space="preserve" text-anchor="middle" x="671.75" y="-593.75" font-family="Consolas" font-size="10.00">ladoEsquerdoAtribuicao</text>
</g>
<!-- n2201337321232&#45;&gt;n2201337321344 -->
<g id="edge44" class="edge">
<title>n2201337321232&#45;&gt;n2201337321344</title>
<path fill="none" stroke="black" d="M697.93,-637.59C694.62,-632.7 690.95,-627.3 687.44,-622.13"/>
<polygon fill="black" stroke="black" points="689.38,-621.25 684.28,-617.46 685.91,-623.61 689.38,-621.25"/>
</g>
<!-- n2201337357072 -->
<g id="node47" class="node">
<title>n2201337357072</title>
<path fill="#eaf5ff" stroke="black" d="M797.75,-616C797.75,-616 767.75,-616 767.75,-616 761.75,-616 755.75,-610 755.75,-604 755.75,-604 755.75,-592 755.75,-592 755.75,-586 761.75,-580 767.75,-580 767.75,-580 797.75,-580 797.75,-580 803.75,-580 809.75,-586 809.75,-592 809.75,-592 809.75,-604 809.75,-604 809.75,-610 803.75,-616 797.75,-616"/>
<text xml:space="preserve" text-anchor="middle" x="782.75" y="-593.75" font-family="Consolas" font-size="10.00">&#39;=&#39;</text>
</g>
<!-- n2201337321232&#45;&gt;n2201337357072 -->
<g id="edge46" class="edge">
<title>n2201337321232&#45;&gt;n2201337357072</title>
<path fill="none" stroke="black" d="M732.45,-637.59C739.52,-632.16 747.4,-626.12 754.79,-620.45"/>
<polygon fill="black" stroke="black" points="755.63,-622.45 759.12,-617.13 753.08,-619.12 755.63,-622.45"/>
</g>
<!-- n2201337321456 -->
<g id="node48" class="node">
<title>n2201337321456</title>
<path fill="#f6f6f6" stroke="black" d="M879.38,-616C879.38,-616 840.12,-616 840.12,-616 834.12,-616 828.12,-610 828.12,-604 828.12,-604 828.12,-592 828.12,-592 828.12,-586 834.12,-580 840.12,-580 840.12,-580 879.38,-580 879.38,-580 885.38,-580 891.38,-586 891.38,-592 891.38,-592 891.38,-604 891.38,-604 891.38,-610 885.38,-616 879.38,-616"/>
<text xml:space="preserve" text-anchor="middle" x="859.75" y="-593.75" font-family="Consolas" font-size="10.00">expressao</text>
</g>
<!-- n2201337321232&#45;&gt;n2201337321456 -->
<g id="edge47" class="edge">
<title>n2201337321232&#45;&gt;n2201337321456</title>
<path fill="none" stroke="black" d="M744.42,-641.1C747.23,-640.04 750.03,-638.99 752.75,-638 781.8,-627.42 789.78,-626.82 818.75,-616 819.6,-615.68 820.46,-615.36 821.33,-615.03"/>
<polygon fill="black" stroke="black" points="821.82,-617.09 826.64,-612.95 820.29,-613.18 821.82,-617.09"/>
</g>
<!-- n2201337357008 -->
<g id="node46" class="node">
<title>n2201337357008</title>
<path fill="#eaf5ff" stroke="black" d="M686.75,-558C686.75,-558 656.75,-558 656.75,-558 650.75,-558 644.75,-552 644.75,-546 644.75,-546 644.75,-534 644.75,-534 644.75,-528 650.75,-522 656.75,-522 656.75,-522 686.75,-522 686.75,-522 692.75,-522 698.75,-528 698.75,-534 698.75,-534 698.75,-546 698.75,-546 698.75,-552 692.75,-558 686.75,-558"/>
<text xml:space="preserve" text-anchor="middle" x="671.75" y="-535.75" font-family="Consolas" font-size="10.00">&#39;c&#39;</text>
</g>
<!-- n2201337321344&#45;&gt;n2201337357008 -->
<g id="edge45" class="edge">
<title>n2201337321344&#45;&gt;n2201337357008</title>
<path fill="none" stroke="black" d="M671.75,-579.59C671.75,-575.12 671.75,-570.23 671.75,-565.48"/>
<polygon fill="black" stroke="black" points="673.85,-565.72 671.75,-559.72 669.65,-565.72 673.85,-565.72"/>
</g>
<!-- n2201337321568 -->
<g id="node49" class="node">
<title>n2201337321568</title>
<path fill="#f6f6f6" stroke="black" d="M900.38,-558C900.38,-558 819.12,-558 819.12,-558 813.12,-558 807.12,-552 807.12,-546 807.12,-546 807.12,-534 807.12,-534 807.12,-528 813.12,-522 819.12,-522 819.12,-522 900.38,-522 900.38,-522 906.38,-522 912.38,-528 912.38,-534 912.38,-534 912.38,-546 912.38,-546 912.38,-552 906.38,-558 900.38,-558"/>
<text xml:space="preserve" text-anchor="middle" x="859.75" y="-535.75" font-family="Consolas" font-size="10.00">expressaoOuLogico</text>
</g>
<!-- n2201337321456&#45;&gt;n2201337321568 -->
<g id="edge48" class="edge">
<title>n2201337321456&#45;&gt;n2201337321568</title>
<path fill="none" stroke="black" d="M859.75,-579.59C859.75,-575.12 859.75,-570.23 859.75,-565.48"/>
<polygon fill="black" stroke="black" points="861.85,-565.72 859.75,-559.72 857.65,-565.72 861.85,-565.72"/>
</g>
<!-- n2201337321680 -->
<g id="node50" class="node">
<title>n2201337321680</title>
<path fill="#f6f6f6" stroke="black" d="M897.75,-500C897.75,-500 821.75,-500 821.75,-500 815.75,-500 809.75,-494 809.75,-488 809.75,-488 809.75,-476 809.75,-476 809.75,-470 815.75,-464 821.75,-464 821.75,-464 897.75,-464 897.75,-464 903.75,-464 909.75,-470 909.75,-476 909.75,-476 909.75,-488 909.75,-488 909.75,-494 903.75,-500 897.75,-500"/>
<text xml:space="preserve" text-anchor="middle" x="859.75" y="-477.75" font-family="Consolas" font-size="10.00">expressaoELogico</text>
</g>
<!-- n2201337321568&#45;&gt;n2201337321680 -->
<g id="edge49" class="edge">
<title>n2201337321568&#45;&gt;n2201337321680</title>
<path fill="none" stroke="black" d="M859.75,-521.59C859.75,-517.12 859.75,-512.23 859.75,-507.48"/>
<polygon fill="black" stroke="black" points="861.85,-507.72 859.75,-501.72 857.65,-507.72 861.85,-507.72"/>
</g>
<!-- n2201337321792 -->
<g id="node51" class="node">
<title>n2201337321792</title>
<path fill="#f6f6f6" stroke="black" d="M905.62,-442C905.62,-442 813.88,-442 813.88,-442 807.88,-442 801.88,-436 801.88,-430 801.88,-430 801.88,-418 801.88,-418 801.88,-412 807.88,-406 813.88,-406 813.88,-406 905.62,-406 905.62,-406 911.62,-406 917.62,-412 917.62,-418 917.62,-418 917.62,-430 917.62,-430 917.62,-436 911.62,-442 905.62,-442"/>
<text xml:space="preserve" text-anchor="middle" x="859.75" y="-419.75" font-family="Consolas" font-size="10.00">expressaoComparacao</text>
</g>
<!-- n2201337321680&#45;&gt;n2201337321792 -->
<g id="edge50" class="edge">
<title>n2201337321680&#45;&gt;n2201337321792</title>
<path fill="none" stroke="black" d="M859.75,-463.59C859.75,-459.12 859.75,-454.23 859.75,-449.48"/>
<polygon fill="black" stroke="black" points="861.85,-449.72 859.75,-443.72 857.65,-449.72 861.85,-449.72"/>
</g>
<!-- n2201337321904 -->
<g id="node52" class="node">
<title>n2201337321904</title>
<path fill="#f6f6f6" stroke="black" d="M903,-384C903,-384 816.5,-384 816.5,-384 810.5,-384 804.5,-378 804.5,-372 804.5,-372 804.5,-360 804.5,-360 804.5,-354 810.5,-348 816.5,-348 816.5,-348 903,-348 903,-348 909,-348 915,-354 915,-360 915,-360 915,-372 915,-372 915,-378 909,-384 903,-384"/>
<text xml:space="preserve" text-anchor="middle" x="859.75" y="-361.75" font-family="Consolas" font-size="10.00">expressaoIntervalo</text>
</g>
<!-- n2201337321792&#45;&gt;n2201337321904 -->
<g id="edge51" class="edge">
<title>n2201337321792&#45;&gt;n2201337321904</title>
<path fill="none" stroke="black" d="M859.75,-405.59C859.75,-401.12 859.75,-396.23 859.75,-391.48"/>
<polygon fill="black" stroke="black" points="861.85,-391.72 859.75,-385.72 857.65,-391.72 861.85,-391.72"/>
</g>
<!-- n2201337322016 -->
<g id="node53" class="node">
<title>n2201337322016</title>
<path fill="#f6f6f6" stroke="black" d="M897.75,-326C897.75,-326 821.75,-326 821.75,-326 815.75,-326 809.75,-320 809.75,-314 809.75,-314 809.75,-302 809.75,-302 809.75,-296 815.75,-290 821.75,-290 821.75,-290 897.75,-290 897.75,-290 903.75,-290 909.75,-296 909.75,-302 909.75,-302 909.75,-314 909.75,-314 909.75,-320 903.75,-326 897.75,-326"/>
<text xml:space="preserve" text-anchor="middle" x="859.75" y="-303.75" font-family="Consolas" font-size="10.00">expressaoAditiva</text>
</g>
<!-- n2201337321904&#45;&gt;n2201337322016 -->
<g id="edge52" class="edge">
<title>n2201337321904&#45;&gt;n2201337322016</title>
<path fill="none" stroke="black" d="M859.75,-347.59C859.75,-343.12 859.75,-338.23 859.75,-333.48"/>
<polygon fill="black" stroke="black" points="861.85,-333.72 859.75,-327.72 857.65,-333.72 861.85,-333.72"/>
</g>
<!-- n2201337322128 -->
<g id="node54" class="node">
<title>n2201337322128</title>
<path fill="#f6f6f6" stroke="black" d="M803.12,-268C803.12,-268 690.38,-268 690.38,-268 684.38,-268 678.38,-262 678.38,-256 678.38,-256 678.38,-244 678.38,-244 678.38,-238 684.38,-232 690.38,-232 690.38,-232 803.12,-232 803.12,-232 809.12,-232 815.12,-238 815.12,-244 815.12,-244 815.12,-256 815.12,-256 815.12,-262 809.12,-268 803.12,-268"/>
<text xml:space="preserve" text-anchor="middle" x="746.75" y="-245.75" font-family="Consolas" font-size="10.00">expressaoMultiplicativa</text>
</g>
<!-- n2201337322016&#45;&gt;n2201337322128 -->
<g id="edge53" class="edge">
<title>n2201337322016&#45;&gt;n2201337322128</title>
<path fill="none" stroke="black" d="M824.62,-289.59C813.14,-283.9 800.28,-277.53 788.37,-271.62"/>
<polygon fill="black" stroke="black" points="789.53,-269.86 783.22,-269.07 787.66,-273.62 789.53,-269.86"/>
</g>
<!-- n2201337357264 -->
<g id="node59" class="node">
<title>n2201337357264</title>
<path fill="#eaf5ff" stroke="black" d="M874.75,-268C874.75,-268 844.75,-268 844.75,-268 838.75,-268 832.75,-262 832.75,-256 832.75,-256 832.75,-244 832.75,-244 832.75,-238 838.75,-232 844.75,-232 844.75,-232 874.75,-232 874.75,-232 880.75,-232 886.75,-238 886.75,-244 886.75,-244 886.75,-256 886.75,-256 886.75,-262 880.75,-268 874.75,-268"/>
<text xml:space="preserve" text-anchor="middle" x="859.75" y="-245.75" font-family="Consolas" font-size="10.00">&#39;+&#39;</text>
</g>
<!-- n2201337322016&#45;&gt;n2201337357264 -->
<g id="edge58" class="edge">
<title>n2201337322016&#45;&gt;n2201337357264</title>
<path fill="none" stroke="black" d="M859.75,-289.59C859.75,-285.12 859.75,-280.23 859.75,-275.48"/>
<polygon fill="black" stroke="black" points="861.85,-275.72 859.75,-269.72 857.65,-275.72 861.85,-275.72"/>
</g>
<!-- n2201337322800 -->
<g id="node60" class="node">
<title>n2201337322800</title>
<path fill="#f6f6f6" stroke="black" d="M1029.12,-268C1029.12,-268 916.38,-268 916.38,-268 910.38,-268 904.38,-262 904.38,-256 904.38,-256 904.38,-244 904.38,-244 904.38,-238 910.38,-232 916.38,-232 916.38,-232 1029.12,-232 1029.12,-232 1035.12,-232 1041.12,-238 1041.12,-244 1041.12,-244 1041.12,-256 1041.12,-256 1041.12,-262 1035.12,-268 1029.12,-268"/>
<text xml:space="preserve" text-anchor="middle" x="972.75" y="-245.75" font-family="Consolas" font-size="10.00">expressaoMultiplicativa</text>
</g>
<!-- n2201337322016&#45;&gt;n2201337322800 -->
<g id="edge59" class="edge">
<title>n2201337322016&#45;&gt;n2201337322800</title>
<path fill="none" stroke="black" d="M894.88,-289.59C906.36,-283.9 919.22,-277.53 931.13,-271.62"/>
<polygon fill="black" stroke="black" points="931.84,-273.62 936.28,-269.07 929.97,-269.86 931.84,-273.62"/>
</g>
<!-- n2201337322240 -->
<g id="node55" class="node">
<title>n2201337322240</title>
<path fill="#f6f6f6" stroke="black" d="M787.38,-210C787.38,-210 706.12,-210 706.12,-210 700.12,-210 694.12,-204 694.12,-198 694.12,-198 694.12,-186 694.12,-186 694.12,-180 700.12,-174 706.12,-174 706.12,-174 787.38,-174 787.38,-174 793.38,-174 799.38,-180 799.38,-186 799.38,-186 799.38,-198 799.38,-198 799.38,-204 793.38,-210 787.38,-210"/>
<text xml:space="preserve" text-anchor="middle" x="746.75" y="-187.75" font-family="Consolas" font-size="10.00">expressaoPotencia</text>
</g>
<!-- n2201337322128&#45;&gt;n2201337322240 -->
<g id="edge54" class="edge">
<title>n2201337322128&#45;&gt;n2201337322240</title>
<path fill="none" stroke="black" d="M746.75,-231.59C746.75,-227.12 746.75,-222.23 746.75,-217.48"/>
<polygon fill="black" stroke="black" points="748.85,-217.72 746.75,-211.72 744.65,-217.72 748.85,-217.72"/>
</g>
<!-- n2201337322352 -->
<g id="node56" class="node">
<title>n2201337322352</title>
<path fill="#f6f6f6" stroke="black" d="M782.12,-152C782.12,-152 711.38,-152 711.38,-152 705.38,-152 699.38,-146 699.38,-140 699.38,-140 699.38,-128 699.38,-128 699.38,-122 705.38,-116 711.38,-116 711.38,-116 782.12,-116 782.12,-116 788.12,-116 794.12,-122 794.12,-128 794.12,-128 794.12,-140 794.12,-140 794.12,-146 788.12,-152 782.12,-152"/>
<text xml:space="preserve" text-anchor="middle" x="746.75" y="-129.75" font-family="Consolas" font-size="10.00">expressaoUnaria</text>
</g>
<!-- n2201337322240&#45;&gt;n2201337322352 -->
<g id="edge55" class="edge">
<title>n2201337322240&#45;&gt;n2201337322352</title>
<path fill="none" stroke="black" d="M746.75,-173.59C746.75,-169.12 746.75,-164.23 746.75,-159.48"/>
<polygon fill="black" stroke="black" points="748.85,-159.72 746.75,-153.72 744.65,-159.72 748.85,-159.72"/>
</g>
<!-- n2201337322464 -->
<g id="node57" class="node">
<title>n2201337322464</title>
<path fill="#f6f6f6" stroke="black" d="M761.75,-94C761.75,-94 731.75,-94 731.75,-94 725.75,-94 719.75,-88 719.75,-82 719.75,-82 719.75,-70 719.75,-70 719.75,-64 725.75,-58 731.75,-58 731.75,-58 761.75,-58 761.75,-58 767.75,-58 773.75,-64 773.75,-70 773.75,-70 773.75,-82 773.75,-82 773.75,-88 767.75,-94 761.75,-94"/>
<text xml:space="preserve" text-anchor="middle" x="746.75" y="-71.75" font-family="Consolas" font-size="10.00">atomo</text>
</g>
<!-- n2201337322352&#45;&gt;n2201337322464 -->
<g id="edge56" class="edge">
<title>n2201337322352&#45;&gt;n2201337322464</title>
<path fill="none" stroke="black" d="M746.75,-115.59C746.75,-111.12 746.75,-106.23 746.75,-101.48"/>
<polygon fill="black" stroke="black" points="748.85,-101.72 746.75,-95.72 744.65,-101.72 748.85,-101.72"/>
</g>
<!-- n2201337357136 -->
<g id="node58" class="node">
<title>n2201337357136</title>
<path fill="#eaf5ff" stroke="black" d="M761.75,-36C761.75,-36 731.75,-36 731.75,-36 725.75,-36 719.75,-30 719.75,-24 719.75,-24 719.75,-12 719.75,-12 719.75,-6 725.75,0 731.75,0 731.75,0 761.75,0 761.75,0 767.75,0 773.75,-6 773.75,-12 773.75,-12 773.75,-24 773.75,-24 773.75,-30 767.75,-36 761.75,-36"/>
<text xml:space="preserve" text-anchor="middle" x="746.75" y="-13.75" font-family="Consolas" font-size="10.00">&#39;a&#39;</text>
</g>
<!-- n2201337322464&#45;&gt;n2201337357136 -->
<g id="edge57" class="edge">
<title>n2201337322464&#45;&gt;n2201337357136</title>
<path fill="none" stroke="black" d="M746.75,-57.59C746.75,-53.12 746.75,-48.23 746.75,-43.48"/>
<polygon fill="black" stroke="black" points="748.85,-43.72 746.75,-37.72 744.65,-43.72 748.85,-43.72"/>
</g>
<!-- n2201337323472 -->
<g id="node61" class="node">
<title>n2201337323472</title>
<path fill="#f6f6f6" stroke="black" d="M1013.38,-210C1013.38,-210 932.12,-210 932.12,-210 926.12,-210 920.12,-204 920.12,-198 920.12,-198 920.12,-186 920.12,-186 920.12,-180 926.12,-174 932.12,-174 932.12,-174 1013.38,-174 1013.38,-174 1019.38,-174 1025.38,-180 1025.38,-186 1025.38,-186 1025.38,-198 1025.38,-198 1025.38,-204 1019.38,-210 1013.38,-210"/>
<text xml:space="preserve" text-anchor="middle" x="972.75" y="-187.75" font-family="Consolas" font-size="10.00">expressaoPotencia</text>
</g>
<!-- n2201337322800&#45;&gt;n2201337323472 -->
<g id="edge60" class="edge">
<title>n2201337322800&#45;&gt;n2201337323472</title>
<path fill="none" stroke="black" d="M972.75,-231.59C972.75,-227.12 972.75,-222.23 972.75,-217.48"/>
<polygon fill="black" stroke="black" points="974.85,-217.72 972.75,-211.72 970.65,-217.72 974.85,-217.72"/>
</g>
<!-- n2201337323584 -->
<g id="node62" class="node">
<title>n2201337323584</title>
<path fill="#f6f6f6" stroke="black" d="M1008.12,-152C1008.12,-152 937.38,-152 937.38,-152 931.38,-152 925.38,-146 925.38,-140 925.38,-140 925.38,-128 925.38,-128 925.38,-122 931.38,-116 937.38,-116 937.38,-116 1008.12,-116 1008.12,-116 1014.12,-116 1020.12,-122 1020.12,-128 1020.12,-128 1020.12,-140 1020.12,-140 1020.12,-146 1014.12,-152 1008.12,-152"/>
<text xml:space="preserve" text-anchor="middle" x="972.75" y="-129.75" font-family="Consolas" font-size="10.00">expressaoUnaria</text>
</g>
<!-- n2201337323472&#45;&gt;n2201337323584 -->
<g id="edge61" class="edge">
<title>n2201337323472&#45;&gt;n2201337323584</title>
<path fill="none" stroke="black" d="M972.75,-173.59C972.75,-169.12 972.75,-164.23 972.75,-159.48"/>
<polygon fill="black" stroke="black" points="974.85,-159.72 972.75,-153.72 970.65,-159.72 974.85,-159.72"/>
</g>
<!-- n2201337323696 -->
<g id="node63" class="node">
<title>n2201337323696</title>
<path fill="#f6f6f6" stroke="black" d="M987.75,-94C987.75,-94 957.75,-94 957.75,-94 951.75,-94 945.75,-88 945.75,-82 945.75,-82 945.75,-70 945.75,-70 945.75,-64 951.75,-58 957.75,-58 957.75,-58 987.75,-58 987.75,-58 993.75,-58 999.75,-64 999.75,-70 999.75,-70 999.75,-82 999.75,-82 999.75,-88 993.75,-94 987.75,-94"/>
<text xml:space="preserve" text-anchor="middle" x="972.75" y="-71.75" font-family="Consolas" font-size="10.00">atomo</text>
</g>
<!-- n2201337323584&#45;&gt;n2201337323696 -->
<g id="edge62" class="edge">
<title>n2201337323584&#45;&gt;n2201337323696</title>
<path fill="none" stroke="black" d="M972.75,-115.59C972.75,-111.12 972.75,-106.23 972.75,-101.48"/>
<polygon fill="black" stroke="black" points="974.85,-101.72 972.75,-95.72 970.65,-101.72 974.85,-101.72"/>
</g>
<!-- n2201337361616 -->
<g id="node64" class="node">
<title>n2201337361616</title>
<path fill="#eaf5ff" stroke="black" d="M987.75,-36C987.75,-36 957.75,-36 957.75,-36 951.75,-36 945.75,-30 945.75,-24 945.75,-24 945.75,-12 945.75,-12 945.75,-6 951.75,0 957.75,0 957.75,0 987.75,0 987.75,0 993.75,0 999.75,-6 999.75,-12 999.75,-12 999.75,-24 999.75,-24 999.75,-30 993.75,-36 987.75,-36"/>
<text xml:space="preserve" text-anchor="middle" x="972.75" y="-13.75" font-family="Consolas" font-size="10.00">&#39;b&#39;</text>
</g>
<!-- n2201337323696&#45;&gt;n2201337361616 -->
<g id="edge63" class="edge">
<title>n2201337323696&#45;&gt;n2201337361616</title>
<path fill="none" stroke="black" d="M972.75,-57.59C972.75,-53.12 972.75,-48.23 972.75,-43.48"/>
<polygon fill="black" stroke="black" points="974.85,-43.72 972.75,-37.72 970.65,-43.72 974.85,-43.72"/>
</g>
<!-- n2201337430608 -->
<g id="node67" class="node">
<title>n2201337430608</title>
<path fill="#eaf5ff" stroke="black" d="M819.75,-736.25C819.75,-736.25 789.75,-736.25 789.75,-736.25 783.75,-736.25 777.75,-730.25 777.75,-724.25 777.75,-724.25 777.75,-708 777.75,-708 777.75,-702 783.75,-696 789.75,-696 789.75,-696 819.75,-696 819.75,-696 825.75,-696 831.75,-702 831.75,-708 831.75,-708 831.75,-724.25 831.75,-724.25 831.75,-730.25 825.75,-736.25 819.75,-736.25"/>
<text xml:space="preserve" text-anchor="middle" x="804.75" y="-722.75" font-family="Consolas" font-size="10.00">&#39;&#13;</text>
<text xml:space="preserve" text-anchor="middle" x="804.75" y="-701" font-family="Consolas" font-size="10.00">&#39;</text>
</g>
<!-- n2201337323920&#45;&gt;n2201337430608 -->
<g id="edge66" class="edge">
<title>n2201337323920&#45;&gt;n2201337430608</title>
<path fill="none" stroke="black" d="M782.35,-757.81C784.94,-753.11 787.8,-747.92 790.58,-742.87"/>
<polygon fill="black" stroke="black" points="792.25,-744.18 793.31,-737.91 788.57,-742.16 792.25,-744.18"/>
</g>
</g>
</svg>
